<svg width="244" height="405" viewBox="0 0 244 405" fill="none" xmlns="http://www.w3.org/2000/svg">
<g clip-path="url(#clip0_68_522)">
<path d="M243.814 74.851C243.814 32.8488 201.965 2.1038 163.347 2.1038C102.375 2.1038 86.7419 50.8234 71.1461 74.851C21.9079 150.625 -50.0927 22.4405 83.9569 7.9723V0H3.00731V6.38522C23.2818 7.78775 22.7248 12.2168 15.9667 23.4002C1.03927 48.0183 -3.8994 76.8441 3.15584 104.267C8.24304 124.05 19.0487 140.844 37.1695 149.075H17.9718V161.734C24.2102 161.734 27.9234 165.942 27.9234 165.942C63.1997 206.246 102.041 299.33 102.041 299.33C102.041 299.33 103.155 375.584 102.041 379.717C100.889 383.851 96.8792 388.17 93.3887 389.572C89.9353 390.938 84.5882 391.86 77.4215 392.34V404.963H197.138V392.34C190.194 391.897 184.995 390.975 181.505 389.572C178.014 388.17 174.19 383.039 172.927 378.905C171.665 374.772 172.482 271.058 172.482 271.058C172.482 271.058 208.909 194.066 224.542 175.87C230.483 168.931 236.09 164.207 241.363 161.66V149.001C204.602 145.937 246.896 129.808 243.851 74.7772L243.814 74.851ZM173.558 150.145C173.224 150.145 172.556 150.071 171.219 149.96V161.624C180.465 161.845 185.775 164.429 190.862 169.374C195.95 174.32 200.22 183.363 199.18 194.398C198.14 205.434 165.129 269.692 165.129 269.692L115.557 175.095C113.478 170.74 113.478 167.713 115.557 165.942C122.018 160.516 136.129 161.993 141.921 161.993L142.033 149.997H87.0761C92.0519 147.893 96.1365 145.199 99.7384 142.062C107.054 135.714 112.289 127.631 115.408 118.846C122.018 100.133 140.028 60.0506 173.447 60.0506C200.554 60.0506 222.537 80.2397 222.537 105.116C222.537 129.993 200.628 150.108 173.558 150.182V150.145Z" fill="black"/>
</g>
<defs>
<clipPath id="clip0_68_522">
<rect width="244" height="405" fill="white"/>
</clipPath>
</defs>
</svg>
