<svg width="42" height="69" viewBox="0 0 42 69" fill="none" xmlns="http://www.w3.org/2000/svg">
<path d="M41.21 12.73C41.21 5.59 34.14 0.36 27.61 0.36C17.3 0.36 14.67 8.64 12.03 12.73C3.69998 25.61 -8.47002 3.81 14.19 1.35V0H0.509985V1.08C3.92999 1.32 3.83998 2.07 2.69999 3.97C0.179985 8.16 -0.660015 13.07 0.539985 17.73C1.39999 21.09 3.22999 23.95 6.28999 25.35H3.04998V27.5C4.10998 27.5 4.72999 28.22 4.72999 28.22C10.69 35.07 17.26 50.9 17.26 50.9C17.26 50.9 17.45 63.87 17.26 64.57C17.06 65.27 16.39 66.01 15.8 66.24C15.21 66.47 14.31 66.63 13.1 66.71V68.86H33.33V66.71C32.16 66.63 31.28 66.48 30.69 66.24C30.1 66 29.45 65.13 29.24 64.43C29.02 63.73 29.17 46.1 29.17 46.1C29.17 46.1 35.33 33.01 37.97 29.92C38.98 28.74 39.92 27.94 40.81 27.5V25.35C34.6 24.83 41.75 22.09 41.23 12.73H41.21ZM29.34 25.53C29.28 25.53 29.17 25.52 28.95 25.5V27.48C30.51 27.52 31.41 27.96 32.27 28.8C33.13 29.64 33.85 31.18 33.67 33.05C33.49 34.93 27.92 45.85 27.92 45.85L19.54 29.76C19.19 29.02 19.19 28.5 19.54 28.21C20.63 27.29 23.02 27.54 24 27.54L24.02 25.5H14.73C15.57 25.14 16.26 24.69 16.87 24.15C18.11 23.07 18.99 21.7 19.52 20.2C20.64 17.02 23.68 10.2 29.33 10.2C33.91 10.2 37.62 13.63 37.62 17.86C37.62 22.09 33.92 25.51 29.34 25.52V25.53Z" fill="white"/>
</svg>
