<svg width="152" height="46" viewBox="0 0 152 46" fill="none" xmlns="http://www.w3.org/2000/svg">
<g clip-path="url(#clip0_68_478)">
<path d="M42.4696 41.6415C41.3427 41.6415 40.347 41.4925 39.4825 41.2063C38.6179 40.9141 37.8488 40.4908 37.175 39.9304L37.6938 38.9168C38.1708 39.2864 38.6358 39.5905 39.0949 39.829C39.554 40.0675 40.0548 40.2464 40.5974 40.3537C41.14 40.467 41.7601 40.5206 42.4457 40.5206C43.6799 40.5206 44.6101 40.2762 45.2301 39.7932C45.8562 39.3103 46.1662 38.6663 46.1662 37.8734C46.1662 37.1817 45.9516 36.657 45.5223 36.2933C45.093 35.9296 44.3358 35.6375 43.2626 35.4288L41.2354 35.0114C39.9475 34.7491 38.9876 34.3198 38.3615 33.7355C37.7295 33.1512 37.4135 32.3582 37.4135 31.3506C37.4135 30.5278 37.6282 29.8123 38.0515 29.2041C38.4748 28.596 39.0651 28.125 39.8223 27.7911C40.5795 27.4572 41.456 27.2962 42.4457 27.2962C43.4355 27.2962 44.3477 27.4453 45.1586 27.7434C45.9695 28.0415 46.673 28.4827 47.2573 29.067L46.7625 30.0627C46.1364 29.4784 45.4806 29.0551 44.7949 28.7987C44.1033 28.5423 43.3222 28.4112 42.4457 28.4112C41.2891 28.4112 40.3768 28.6735 39.7031 29.1982C39.0293 29.7229 38.6895 30.4264 38.6895 31.3148C38.6895 32.0303 38.9041 32.5907 39.3334 32.9843C39.7627 33.3837 40.4662 33.6818 41.4321 33.8786L43.4832 34.296C44.8486 34.5762 45.8502 34.9816 46.4882 35.5182C47.1262 36.0549 47.4422 36.824 47.4422 37.8137C47.4422 38.571 47.2394 39.2387 46.834 39.8111C46.4286 40.3895 45.8562 40.8366 45.1109 41.1526C44.3656 41.4686 43.4832 41.6296 42.4636 41.6296L42.4696 41.6415Z" fill="white"/>
<path d="M49.8331 29.073V27.5585H51.4667V29.073H49.8331ZM50.0298 41.4865V31.5175H51.2461V41.4865H50.0298Z" fill="white"/>
<path d="M58.8659 45.9225C58.0312 45.9225 57.2501 45.8092 56.5287 45.5826C55.8073 45.3561 55.1574 45.0162 54.591 44.569L55.0262 43.633C55.4495 43.937 55.8609 44.1815 56.2485 44.3604C56.642 44.5392 57.0474 44.6704 57.4708 44.7598C57.8941 44.8433 58.3532 44.891 58.8421 44.891C59.8497 44.891 60.6129 44.6227 61.1316 44.0861C61.6503 43.5495 61.9067 42.7744 61.9067 41.7668V38.6008H62.1273C61.9127 39.4355 61.4715 40.0913 60.7918 40.5624C60.118 41.0334 59.3191 41.2659 58.4068 41.2659C57.4946 41.2659 56.7016 41.0632 56.0279 40.6578C55.3601 40.2523 54.8414 39.674 54.4777 38.9287C54.114 38.1774 53.9291 37.301 53.9291 36.2933C53.9291 35.2857 54.114 34.4093 54.4777 33.6699C54.8414 32.9246 55.3601 32.3523 56.0279 31.9468C56.6957 31.5414 57.4886 31.3387 58.4068 31.3387C59.325 31.3387 60.118 31.5772 60.7918 32.0422C61.4655 32.5132 61.9127 33.1751 62.1273 34.0217L61.9067 33.8011L62.0856 31.5116H63.2781C63.2244 31.8991 63.1827 32.2747 63.1588 32.6444C63.135 33.0141 63.1171 33.3778 63.1171 33.7415V41.5819C63.1171 43.0129 62.7534 44.098 62.0319 44.8254C61.3105 45.5528 60.2492 45.9225 58.86 45.9225H58.8659ZM58.5499 40.2344C59.5874 40.2344 60.4042 39.8886 61.0064 39.197C61.6086 38.5054 61.9127 37.5395 61.9127 36.2933C61.9127 35.0472 61.6086 34.0992 61.0064 33.4076C60.4042 32.716 59.5814 32.3701 58.5499 32.3701C57.5185 32.3701 56.6957 32.716 56.0815 33.4076C55.4734 34.0992 55.1633 35.0591 55.1633 36.2933C55.1633 37.5275 55.4674 38.5113 56.0815 39.197C56.6897 39.8886 57.5125 40.2344 58.5499 40.2344Z" fill="white"/>
<path d="M66.3844 41.4865V33.8488C66.3844 33.4672 66.3725 33.0737 66.3546 32.6861C66.3367 32.2926 66.301 31.9051 66.2473 31.5235H67.4398L67.6008 33.813L67.3623 33.8309C67.4934 33.2764 67.7319 32.8114 68.0777 32.4476C68.4236 32.0839 68.823 31.8097 69.2702 31.6248C69.7233 31.44 70.1884 31.3446 70.6654 31.3446C70.8383 31.3446 70.9993 31.3565 71.1543 31.3744C71.3093 31.3923 71.4524 31.4221 71.5836 31.4639L71.5419 32.5609C71.3809 32.5073 71.2259 32.4775 71.0649 32.4596C70.9039 32.4477 70.731 32.4417 70.5461 32.4417C69.9499 32.4417 69.4312 32.5907 68.984 32.8769C68.5368 33.1691 68.197 33.5388 67.9585 33.9919C67.72 34.445 67.6008 34.8982 67.6008 35.3632V41.4925H66.3844V41.4865Z" fill="white"/>
<path d="M73.1517 29.073V27.5585H74.7853V29.073H73.1517ZM73.3484 41.4865V31.5175H74.5647V41.4865H73.3484Z" fill="white"/>
<path d="M81.6659 41.6415C80.7656 41.6415 79.9785 41.4388 79.3167 41.0274C78.6549 40.616 78.1422 40.0258 77.7844 39.2566C77.4267 38.4875 77.2478 37.5633 77.2478 36.4901C77.2478 35.4169 77.4326 34.4987 77.7963 33.7355C78.16 32.9723 78.6728 32.3821 79.3406 31.9647C80.0024 31.5473 80.7775 31.3387 81.6659 31.3387C82.5543 31.3387 83.3711 31.5772 84.0449 32.0541C84.7186 32.5311 85.1538 33.181 85.3685 34.0038H85.13L85.3267 31.5175H86.5013C86.4596 31.9051 86.4238 32.2807 86.394 32.6504C86.3582 33.02 86.3463 33.3837 86.3463 33.7474V41.4865H85.13V39.0002H85.3506C85.1359 39.823 84.6947 40.467 84.027 40.938C83.3592 41.409 82.5722 41.6415 81.6718 41.6415H81.6659ZM81.8269 40.6101C82.8464 40.6101 83.6573 40.2583 84.2535 39.5547C84.8498 38.8512 85.1479 37.8316 85.1479 36.4901C85.1479 35.1486 84.8498 34.129 84.2535 33.4255C83.6573 32.7219 82.8464 32.3701 81.8269 32.3701C80.8073 32.3701 79.9905 32.7219 79.3883 33.4255C78.7861 34.129 78.482 35.1486 78.482 36.4901C78.482 37.8316 78.7861 38.8512 79.3883 39.5547C79.9905 40.2583 80.8013 40.6101 81.8269 40.6101Z" fill="white"/>
<path d="M89.6435 41.4865V33.7474C89.6435 33.3897 89.6315 33.026 89.6017 32.6504C89.5719 32.2807 89.5361 31.8991 89.4825 31.5175H90.6749L90.8538 33.8071H90.6153C90.9075 33.0141 91.3785 32.3999 92.0284 31.9766C92.6783 31.5533 93.4355 31.3387 94.2941 31.3387C95.4746 31.3387 96.369 31.6487 96.9712 32.2747C97.5733 32.9008 97.8774 33.8726 97.8774 35.2022V41.4865H96.6611V35.2976C96.6611 34.2781 96.4524 33.5388 96.047 33.0797C95.6356 32.6206 94.9976 32.394 94.1391 32.394C93.1314 32.394 92.3325 32.6981 91.7422 33.3122C91.1519 33.9203 90.8598 34.7431 90.8598 35.7806V41.4925H89.6435V41.4865Z" fill="white"/>
<path d="M104.364 41.6415C103.595 41.6415 102.874 41.5283 102.206 41.3017C101.538 41.0751 100.984 40.7651 100.543 40.3656L101.02 39.4713C101.508 39.8707 102.039 40.1629 102.612 40.3537C103.184 40.5445 103.78 40.6399 104.4 40.6399C105.247 40.6399 105.891 40.4789 106.332 40.1629C106.767 39.8469 106.988 39.4116 106.988 38.8691C106.988 38.4457 106.851 38.0999 106.571 37.8376C106.29 37.5752 105.825 37.3725 105.175 37.2414L103.387 36.8657C102.54 36.669 101.902 36.347 101.485 35.9118C101.067 35.4765 100.859 34.922 100.859 34.2602C100.859 33.6878 101.008 33.187 101.306 32.7458C101.604 32.3105 102.033 31.9647 102.588 31.7083C103.142 31.4579 103.804 31.3327 104.555 31.3327C105.271 31.3327 105.933 31.446 106.535 31.6785C107.137 31.911 107.632 32.239 108.019 32.6623L107.501 33.5388C107.101 33.1393 106.654 32.8412 106.159 32.6444C105.658 32.4477 105.134 32.3463 104.579 32.3463C103.756 32.3463 103.13 32.5132 102.707 32.8531C102.284 33.1929 102.069 33.6401 102.069 34.1946C102.069 34.6179 102.2 34.9697 102.468 35.238C102.737 35.5123 103.154 35.715 103.721 35.8462L105.509 36.2456C106.41 36.4424 107.083 36.7524 107.519 37.1638C107.954 37.5752 108.174 38.1178 108.174 38.7975C108.174 39.3818 108.013 39.8886 107.697 40.3179C107.381 40.7472 106.934 41.0751 106.362 41.3017C105.789 41.5283 105.122 41.6415 104.353 41.6415H104.364Z" fill="white"/>
<path d="M110.971 41.4865V26.8431H112.187V36.037H112.229L117.142 31.5235H118.716L113.063 36.7167L113.123 35.9833L119.312 41.4925H117.66L112.229 36.6988H112.187V41.4925H110.971V41.4865Z" fill="white"/>
<path d="M124.559 41.6415C123.658 41.6415 122.871 41.4388 122.21 41.0274C121.548 40.616 121.035 40.0258 120.677 39.2566C120.32 38.4875 120.141 37.5633 120.141 36.4901C120.141 35.4169 120.326 34.4987 120.689 33.7355C121.053 32.9723 121.566 32.3821 122.233 31.9647C122.895 31.5473 123.67 31.3387 124.559 31.3387C125.447 31.3387 126.264 31.5772 126.938 32.0541C127.611 32.5311 128.047 33.181 128.261 34.0038H128.023L128.22 31.5175H129.394C129.352 31.9051 129.317 32.2807 129.287 32.6504C129.251 33.02 129.239 33.3837 129.239 33.7474V41.4865H128.023V39.0002H128.243C128.029 39.823 127.588 40.467 126.92 40.938C126.252 41.409 125.465 41.6415 124.565 41.6415H124.559ZM124.72 40.6101C125.739 40.6101 126.55 40.2583 127.146 39.5547C127.743 38.8512 128.041 37.8316 128.041 36.4901C128.041 35.1486 127.743 34.129 127.146 33.4255C126.55 32.7219 125.739 32.3701 124.72 32.3701C123.7 32.3701 122.883 32.7219 122.281 33.4255C121.679 34.129 121.375 35.1486 121.375 36.4901C121.375 37.8316 121.679 38.8512 122.281 39.5547C122.883 40.2583 123.694 40.6101 124.72 40.6101Z" fill="white"/>
<path d="M131.982 46L131.684 44.9447C132.304 44.7956 132.823 44.6227 133.234 44.42C133.645 44.2113 133.991 43.943 134.265 43.6151C134.546 43.2812 134.79 42.8698 134.999 42.3809L135.518 41.1884L135.5 41.725L131.141 31.5175H132.495L136.293 40.7293H135.798L139.56 31.5175H140.872L136.257 42.4405C136.006 43.0487 135.732 43.5555 135.434 43.9609C135.136 44.3663 134.814 44.7062 134.468 44.9745C134.122 45.2487 133.747 45.4634 133.335 45.6184C132.924 45.7794 132.471 45.9046 131.982 45.994V46Z" fill="white"/>
<path d="M146.464 41.6415C145.564 41.6415 144.777 41.4388 144.115 41.0274C143.453 40.616 142.941 40.0258 142.583 39.2566C142.225 38.4875 142.046 37.5633 142.046 36.4901C142.046 35.4169 142.231 34.4987 142.595 33.7355C142.958 32.9723 143.471 32.3821 144.139 31.9647C144.801 31.5473 145.576 31.3387 146.464 31.3387C147.353 31.3387 148.17 31.5772 148.843 32.0541C149.517 32.5311 149.952 33.181 150.167 34.0038H149.928L150.125 31.5175H151.3C151.258 31.9051 151.222 32.2807 151.192 32.6504C151.157 33.02 151.145 33.3837 151.145 33.7474V41.4865H149.928V39.0002H150.149C149.934 39.823 149.493 40.467 148.825 40.938C148.158 41.409 147.371 41.6415 146.47 41.6415H146.464ZM146.625 40.6101C147.645 40.6101 148.456 40.2583 149.052 39.5547C149.648 38.8512 149.946 37.8316 149.946 36.4901C149.946 35.1486 149.648 34.129 149.052 33.4255C148.456 32.7219 147.645 32.3701 146.625 32.3701C145.606 32.3701 144.789 32.7219 144.187 33.4255C143.585 34.129 143.28 35.1486 143.28 36.4901C143.28 37.8316 143.585 38.8512 144.187 39.5547C144.789 40.2583 145.6 40.6101 146.625 40.6101Z" fill="white"/>
<path d="M24.5707 8.02003C24.5707 3.76294 20.3553 0.644644 16.4619 0.644644C10.3148 0.644644 8.7467 5.58144 7.17265 8.02003C2.20604 15.6995 -5.0501 2.70164 8.46051 1.23491V0.43H0.304061V1.07393C2.34317 1.21703 2.28951 1.6642 1.60981 2.79704C0.107305 5.29525 -0.39353 8.22275 0.321948 11.0012C0.834707 13.0045 1.92581 14.7098 3.75028 15.5445H1.81849V16.8264C2.4505 16.8264 2.82016 17.2557 2.82016 17.2557C6.3737 21.3399 10.2909 30.7782 10.2909 30.7782C10.2909 30.7782 10.4042 38.5113 10.2909 38.9287C10.1717 39.3461 9.77222 39.7873 9.42045 39.9244C9.06867 40.0615 8.53206 40.1569 7.81062 40.2046V41.4865H19.8724V40.2046C19.1748 40.1569 18.6501 40.0675 18.2983 39.9244C17.9466 39.7813 17.559 39.2626 17.4338 38.8452C17.3026 38.4279 17.3921 27.9163 17.3921 27.9163C17.3921 27.9163 21.0649 20.1116 22.6389 18.2693C23.2411 17.5657 23.8016 17.0887 24.3322 16.8264V15.5445C20.6296 15.2344 24.8927 13.6008 24.5826 8.02003H24.5707ZM17.4934 15.6518C17.4577 15.6518 17.3921 15.6458 17.2609 15.6339V16.8145C18.191 16.8383 18.7276 17.1006 19.2404 17.6015C19.7531 18.1023 20.1824 19.0205 20.0751 20.1355C19.9678 21.2564 16.6468 27.7672 16.6468 27.7672L11.6504 18.1739C11.4417 17.7326 11.4417 17.4226 11.6504 17.2497C12.3002 16.7012 13.7252 16.8502 14.3095 16.8502L14.3215 15.6339H8.78248C9.28331 15.4193 9.69471 15.151 10.0584 14.829C10.7977 14.1851 11.3224 13.3682 11.6384 12.4739C12.3062 10.5779 14.1188 6.51157 17.4875 6.51157C20.2182 6.51157 22.4302 8.55664 22.4302 11.0787C22.4302 13.6008 20.2242 15.6399 17.4934 15.6458V15.6518Z" fill="white"/>
<path d="M42.4934 16.3136V9.78488L42.7916 10.721L37.0797 2.28428H38.5106L43.3282 9.54638H42.9704L47.782 2.28428H49.1533L43.4414 10.721L43.7217 9.78488V16.3136H42.4875H42.4934Z" fill="white"/>
<path d="M52.9752 16.4746C52.0749 16.4746 51.2879 16.2719 50.6261 15.8605C49.9642 15.4491 49.4515 14.8588 49.0937 14.0897C48.736 13.3205 48.5571 12.3964 48.5571 11.3232C48.5571 10.2499 48.742 9.33174 49.1057 8.56856C49.4694 7.80539 49.9821 7.21512 50.6499 6.79775C51.3117 6.38039 52.0868 6.17171 52.9752 6.17171C53.8636 6.17171 54.6804 6.4102 55.3542 6.88719C56.0279 7.36417 56.4632 8.01407 56.6778 8.83687H56.4393L56.6361 6.35058H57.8106C57.7689 6.73813 57.7331 7.11376 57.7033 7.48342C57.6675 7.85308 57.6556 8.21679 57.6556 8.58049V16.3196H56.4393V13.8333H56.6599C56.4453 14.6561 56.0041 15.3 55.3363 15.771C54.6685 16.2421 53.8815 16.4746 52.9812 16.4746H52.9752ZM53.1362 15.4431C54.1557 15.4431 54.9666 15.0913 55.5629 14.3878C56.1591 13.6842 56.4572 12.6647 56.4572 11.3232C56.4572 9.98163 56.1591 8.96208 55.5629 8.25852C54.9666 7.55497 54.1557 7.20319 53.1362 7.20319C52.1166 7.20319 51.2998 7.55497 50.6976 8.25852C50.0954 8.96208 49.7913 9.98163 49.7913 11.3232C49.7913 12.6647 50.0954 13.6842 50.6976 14.3878C51.2998 15.0913 52.1107 15.4431 53.1362 15.4431Z" fill="white"/>
<path d="M60.9528 16.3136V8.57453C60.9528 8.21679 60.9409 7.85308 60.9111 7.47746C60.8812 7.10779 60.8455 6.72621 60.7918 6.34462H61.9843L62.1631 8.63415H61.9247C62.2168 7.84116 62.6878 7.22704 63.3377 6.80372C63.9876 6.38039 64.7448 6.16575 65.6034 6.16575C66.7839 6.16575 67.6783 6.47579 68.2805 7.10183C68.8827 7.72788 69.1868 8.69973 69.1868 10.0293V16.3136H67.9704V10.1247C67.9704 9.10517 67.7618 8.36584 67.3563 7.90675C66.9449 7.44765 66.307 7.22108 65.4484 7.22108C64.4407 7.22108 63.6418 7.52516 63.0515 8.13928C62.4613 8.74743 62.1691 9.57023 62.1691 10.6077V16.3196H60.9528V16.3136Z" fill="white"/>
<path d="M76.2342 16.4746C75.3339 16.4746 74.5468 16.2719 73.885 15.8605C73.2232 15.4491 72.7104 14.8588 72.3527 14.0897C71.995 13.3205 71.8161 12.3964 71.8161 11.3232C71.8161 10.2499 72.0009 9.33174 72.3646 8.56856C72.7283 7.80539 73.2411 7.21512 73.9089 6.79775C74.5707 6.38039 75.3458 6.17171 76.2342 6.17171C77.1226 6.17171 77.9394 6.4102 78.6132 6.88719C79.2869 7.36417 79.7221 8.01407 79.9368 8.83687H79.6983L79.895 6.35058H81.0696C81.0279 6.73813 80.9921 7.11376 80.9623 7.48342C80.9265 7.85308 80.9146 8.21679 80.9146 8.58049V16.3196H79.6983V13.8333H79.9189C79.7042 14.6561 79.263 15.3 78.5953 15.771C77.9275 16.2421 77.1405 16.4746 76.2401 16.4746H76.2342ZM76.3952 15.4431C77.4147 15.4431 78.2256 15.0913 78.8218 14.3878C79.4181 13.6842 79.7162 12.6647 79.7162 11.3232C79.7162 9.98163 79.4181 8.96208 78.8218 8.25852C78.2256 7.55497 77.4147 7.20319 76.3952 7.20319C75.3756 7.20319 74.5588 7.55497 73.9566 8.25852C73.3544 8.96208 73.0503 9.98163 73.0503 11.3232C73.0503 12.6647 73.3544 13.6842 73.9566 14.3878C74.5588 15.0913 75.3696 15.4431 76.3952 15.4431Z" fill="white"/>
</g>
<defs>
<clipPath id="clip0_68_478">
<rect width="151.3" height="45.57" fill="white" transform="translate(0 0.43)"/>
</clipPath>
</defs>
</svg>
