<?xml version="1.0" encoding="UTF-8"?>
<svg id="_Слой_2" data-name="Слой 2" xmlns="http://www.w3.org/2000/svg" viewBox="0 0 217.19 362.69">
  <defs>
    <style>
      .cls-1 {
        fill: #006fe7;
        stroke-width: 0px;
      }
    </style>
  </defs>
  <g id="_Слой_1-2" data-name="Слой 1">
    <path class="cls-1" d="m217.05,67.04C217.05,29.43,179.79,1.88,145.42,1.88c-54.29,0-68.18,43.64-82.08,65.16C19.49,134.91-44.6,20.09,74.73,7.14V0H2.69v5.71c18.04,1.27,17.54,5.23,11.52,15.23C.94,42.99-3.47,68.83,2.82,93.38c4.54,17.72,14.15,32.76,30.27,40.12h-17.09v11.32c5.56,0,8.85,3.78,8.85,3.78,31.4,36.08,65.98,119.47,65.98,119.47,0,0,1,68.3-.03,72-1.03,3.71-4.6,7.58-7.69,8.82-3.09,1.24-7.83,2.06-14.21,2.47v11.32h106.56v-11.32c-6.18-.41-10.81-1.24-13.9-2.47-3.09-1.24-6.51-5.83-7.64-9.54-1.13-3.71-.39-96.57-.39-96.57,0,0,32.43-68.95,46.33-85.23,5.3-6.21,10.28-10.45,14.97-12.73v-11.32c-32.73-2.75,4.94-17.19,2.21-66.46Zm-62.54,67.42c-.29-.02-.9-.06-2.08-.15v10.43c8.23.21,12.94,2.52,17.47,6.95,4.53,4.43,8.32,12.51,7.39,22.4-.93,9.88-30.3,67.43-30.3,67.43l-44.12-84.73c-1.85-3.91-1.84-6.63,0-8.18,5.75-4.87,18.32-3.55,23.47-3.55l.11-10.74h-48.91c4.44-1.88,8.05-4.28,11.28-7.09,6.52-5.68,11.18-12.92,13.93-20.79,5.88-16.77,21.93-52.67,51.65-52.67,24.13,0,43.69,18.07,43.69,40.35s-19.51,40.3-43.59,40.35Zm.11,0c.13,0,.18.01,0,0h0Z"/>
  </g>
</svg>