<svg width="105" height="123" viewBox="0 0 105 123" fill="none" xmlns="http://www.w3.org/2000/svg">
<g clip-path="url(#clip0_5_716)">
<path d="M101.082 43.4558C101.082 41.8468 102.384 40.5452 103.992 40.5452V37.2946C102.384 37.2946 101.082 35.993 101.082 34.384C101.082 32.7751 102.384 31.4735 103.992 31.4735V28.2228C102.384 28.2228 101.082 26.9213 101.082 25.3123C101.082 23.7033 102.384 22.4018 103.992 22.4018V19.1511C102.384 19.1511 101.082 17.8496 101.082 16.2406C101.082 14.6316 102.384 13.33 103.992 13.33V10.0794C102.384 10.0794 101.082 8.77782 101.082 7.16885C101.082 5.55988 102.384 4.25831 103.992 4.25831V1.00766H100.742C100.742 2.61663 99.4403 3.9182 97.8313 3.9182C96.2223 3.9182 94.9208 2.61663 94.9208 1.00766H91.6701C91.6701 2.61663 90.3685 3.9182 88.7596 3.9182C87.1506 3.9182 85.849 2.61663 85.849 1.00766H82.5984C82.5984 2.61663 81.2968 3.9182 79.6878 3.9182C78.0789 3.9182 76.7773 2.61663 76.7773 1.00766H73.5267C73.5267 2.61663 72.2251 3.9182 70.6161 3.9182C69.0071 3.9182 67.7056 2.61663 67.7056 1.00766H64.4549C64.4549 2.61663 63.1534 3.9182 61.5444 3.9182C59.9354 3.9182 58.6338 2.61663 58.6338 1.00766H55.3832C55.3832 2.61663 54.0816 3.9182 52.4727 3.9182C50.8637 3.9182 49.5621 2.61663 49.5621 1.00766H46.3115C46.3115 2.61663 45.0099 3.9182 43.4009 3.9182C41.792 3.9182 40.4904 2.61663 40.4904 1.00766H37.2397C37.2397 2.61663 35.9382 3.9182 34.3292 3.9182C32.7202 3.9182 31.4187 2.61663 31.4187 1.00766H28.168C28.168 2.61663 26.8664 3.9182 25.2575 3.9182C23.6485 3.9182 22.3469 2.61663 22.3469 1.00766H19.0963C19.0963 2.61663 17.7947 3.9182 16.1857 3.9182C14.5768 3.9182 13.2752 2.61663 13.2752 1.00766H10.0246C10.0246 2.61663 8.72299 3.9182 7.11402 3.9182C5.50505 3.9182 4.19694 2.61663 4.19694 1.00766H0.946289V4.25831C2.55526 4.25831 3.85683 5.55988 3.85683 7.16885C3.85683 8.77782 2.55526 10.0794 0.946289 10.0794V13.33C2.55526 13.33 3.85683 14.6316 3.85683 16.2406C3.85683 17.8496 2.55526 19.1511 0.946289 19.1511V22.4018C2.55526 22.4018 3.85683 23.7033 3.85683 25.3123C3.85683 26.9213 2.55526 28.2228 0.946289 28.2228V31.4735C2.55526 31.4735 3.85683 32.7751 3.85683 34.384C3.85683 35.993 2.55526 37.2946 0.946289 37.2946V40.5452C2.55526 40.5452 3.85683 41.8468 3.85683 43.4558C3.85683 45.0647 2.55526 46.3663 0.946289 46.3663V49.617C2.55526 49.617 3.85683 50.9185 3.85683 52.5275C3.85683 54.1365 2.55526 55.438 0.946289 55.438V58.6887C2.55526 58.6887 3.85683 59.9902 3.85683 61.5992C3.85683 63.2082 2.55526 64.5098 0.946289 64.5098V67.7604C2.55526 67.7604 3.85683 69.062 3.85683 70.671C3.85683 72.2799 2.55526 73.5815 0.946289 73.5815V76.8321C2.54872 76.8321 3.85029 78.1337 3.85029 79.7427C3.85029 81.3516 2.54872 82.6532 0.946289 82.6532V85.9039C2.54872 85.9039 3.85029 87.2054 3.85029 88.8144C3.85029 90.4234 2.54872 91.7249 0.946289 91.7249V94.9756C2.54872 94.9756 3.85029 96.2772 3.85029 97.8861C3.85029 99.4951 2.54872 100.797 0.946289 100.797V104.047C2.54872 104.047 3.85029 105.349 3.85029 106.958C3.85029 108.567 2.54872 109.868 0.946289 109.868V113.119C2.54872 113.119 3.85029 114.421 3.85029 116.03C3.85029 117.639 2.54872 118.94 0.946289 118.94V122.184H4.19694C4.19694 120.575 5.4985 119.274 7.10748 119.274C8.71645 119.274 10.018 120.575 10.018 122.184H13.2687C13.2687 120.575 14.5702 119.274 16.1792 119.274C17.7882 119.274 19.0897 120.575 19.0897 122.184H22.3404C22.3404 120.575 23.642 119.274 25.2509 119.274C26.8599 119.274 28.1615 120.575 28.1615 122.184H31.4121C31.4121 120.575 32.7137 119.274 34.3227 119.274C35.9316 119.274 37.2332 120.575 37.2332 122.184H40.4839C40.4839 120.575 41.7854 119.274 43.3944 119.274C45.0034 119.274 46.3049 120.575 46.3049 122.184H49.5556C49.5556 120.575 50.8571 119.274 52.4661 119.274C54.0751 119.274 55.3767 120.575 55.3767 122.184H58.6273C58.6273 120.575 59.9289 119.274 61.5378 119.274C63.1468 119.274 64.4484 120.575 64.4484 122.184H67.699C67.699 120.575 69.0006 119.274 70.6096 119.274C72.2186 119.274 73.5201 120.575 73.5201 122.184H76.7708C76.7708 120.575 78.0723 119.274 79.6813 119.274C81.2903 119.274 82.5918 120.575 82.5918 122.184H85.8425C85.8425 120.575 87.1441 119.274 88.753 119.274C90.362 119.274 91.6636 120.575 91.6636 122.184H94.9142C94.9142 120.575 96.2158 119.274 97.8248 119.274C99.4337 119.274 100.735 120.575 100.735 122.184H103.979V118.94C102.37 118.94 101.069 117.639 101.069 116.03C101.069 114.421 102.37 113.119 103.979 113.119V109.868C102.37 109.868 101.069 108.567 101.069 106.958C101.069 105.349 102.37 104.047 103.979 104.047V100.797C102.37 100.797 101.069 99.4951 101.069 97.8861C101.069 96.2772 102.37 94.9756 103.979 94.9756V91.7249C102.37 91.7249 101.069 90.4234 101.069 88.8144C101.069 87.2054 102.37 85.9039 103.979 85.9039V82.6532C102.37 82.6532 101.069 81.3516 101.069 79.7427C101.069 78.1337 102.37 76.8321 103.979 76.8321V73.5815C102.37 73.5815 101.069 72.2799 101.069 70.671C101.069 69.062 102.37 67.7604 103.979 67.7604V64.5098C102.37 64.5098 101.069 63.2082 101.069 61.5992C101.069 59.9902 102.37 58.6887 103.979 58.6887V55.438C102.37 55.438 101.069 54.1365 101.069 52.5275C101.069 50.9185 102.37 49.617 103.979 49.617V46.3663C102.37 46.3663 101.069 45.0647 101.069 43.4558H101.082Z" stroke="black" stroke-width="1.64788" stroke-miterlimit="10"/>
<path d="M76.236 34.5239C76.236 25.6398 67.4935 19.1322 59.4187 19.1322C46.6697 19.1322 43.4175 29.4348 40.1529 34.5239C29.8523 50.5503 14.8033 23.425 42.8239 20.364V18.6843H25.9077V20.0281C30.1367 20.3267 30.0254 21.2599 28.6158 23.6241C25.4996 28.8376 24.4609 34.947 25.9448 40.7453C27.0082 44.9261 29.2711 48.4848 33.055 50.2267H29.0486V52.9019C30.3593 52.9019 31.126 53.7978 31.126 53.7978C38.4959 62.3211 46.6202 82.0181 46.6202 82.0181C46.6202 82.0181 46.8551 98.1564 46.6202 99.0274C46.3729 99.8984 45.5444 100.819 44.8148 101.105C44.0852 101.392 42.9723 101.591 41.4761 101.69V104.365H66.4919V101.69C65.0451 101.591 63.9569 101.404 63.2273 101.105C62.4977 100.807 61.694 99.7242 61.4343 98.8532C61.1622 97.9822 61.3477 76.0455 61.3477 76.0455C61.3477 76.0455 68.965 59.7579 72.2295 55.9131C73.4785 54.4449 74.6408 53.4494 75.7414 52.9019V50.2267C68.0623 49.5797 76.9038 46.1704 76.2607 34.5239H76.236ZM61.5579 50.4507C61.4837 50.4507 61.3477 50.4383 61.0757 50.4134V52.8771C63.0047 52.9268 64.1176 53.4743 65.1811 54.5195C66.2445 55.5647 67.1349 57.4809 66.9123 59.8077C66.6897 62.1469 59.802 75.7345 59.802 75.7345L49.4396 55.714C49.0068 54.7933 49.0068 54.1462 49.4396 53.7854C50.7874 52.6406 53.7428 52.9517 54.9547 52.9517L54.9794 50.4134H43.4917C44.5304 49.9654 45.3836 49.4055 46.1379 48.7336C47.6713 47.3898 48.7595 45.6851 49.4148 43.8187C50.7998 39.8619 54.559 31.3759 61.5456 31.3759C67.2091 31.3759 71.7967 35.6438 71.7967 40.9071C71.7967 46.1704 67.2214 50.4258 61.5579 50.4383V50.4507Z" fill="black"/>
</g>
<defs>
<clipPath id="clip0_5_716">
<rect width="104.354" height="122.491" fill="white" transform="translate(0.291992 0.353607)"/>
</clipPath>
</defs>
</svg>
